<svg version="1.2" xmlns="http://www.w3.org/2000/svg" viewBox="0 0 67 67" width="67" height="67"><style>.a{fill:#fff}</style><path fill-rule="evenodd" class="a" d="m61.6 66.4c-1.3 0-2.5 0-3.8-1.3-13.3-13.4-13.3-13.4-13.3-13.4-5.1 3.2-10.2 4.5-15.9 4.5-15.3 0-28-12.2-28-27.5 0-16 12.7-28.1 28-28.1 15.2 0 27.9 12.1 27.9 28.1 0 5.1-1.9 10.9-5.1 15.3 13.4 14.1 13.4 14.1 13.4 14.1 1.2 0.6 1.9 1.9 1.9 3.2 0 3.2-2.6 5.1-5.1 5.1zm-33-55.6c-10.2 0-17.8 7.7-17.8 17.9 0 9.6 7.6 17.2 17.8 17.2 9.5 0 17.8-7.6 17.8-17.2 0-10.2-8.3-17.9-17.8-17.9z"/></svg>